<svg xmlns="http://www.w3.org/2000/svg" version="1.1" xmlns:xlink="http://www.w3.org/1999/xlink" xmlns:svgjs="http://svgjs.dev/svgjs" width="1500" height="1500" viewBox="0 0 1500 1500"><rect width="1500" height="1500" fill="#edddf2"></rect><g transform="matrix(0.6666666666666666,0,0,0.6666666666666666,250.00011477487288,187.66666666666674)"><svg viewBox="0 0 320 360" data-background-color="#edddf2" preserveAspectRatio="xMidYMid meet" height="1687" width="1500" xmlns="http://www.w3.org/2000/svg" xmlns:xlink="http://www.w3.org/1999/xlink"><g id="tight-bounds" transform="matrix(1,0,0,1,-0.00003672795929787753,0)"><svg viewBox="0 0 320 360" height="360" width="320"><g><svg></svg></g><g><svg viewBox="0 0 320 360" height="360" width="320"><g><path transform="translate(-32.1528,-12.1528) scale(3.84303,3.84303)" d="M88.492 50l1.711-2.963c2.946-5.102 1.198-11.626-3.904-14.572l-2.963-1.711v-3.422c0-5.891-4.776-10.667-10.667-10.667h-3.422l-1.711-2.963c-2.946-5.102-9.47-6.85-14.572-3.904l-2.964 1.71-2.963-1.711c-5.102-2.945-11.626-1.197-14.572 3.905l-1.711 2.963h-3.422c-5.891 0-10.667 4.776-10.667 10.667v3.422l-2.963 1.711c-5.102 2.946-6.85 9.47-3.904 14.572l1.71 2.963-1.711 2.963c-2.945 5.102-1.197 11.626 3.905 14.572l2.963 1.711v3.422c0 5.891 4.776 10.667 10.667 10.667h3.422l1.711 2.963c2.946 5.102 9.47 6.85 14.572 3.904l2.963-1.71 2.963 1.711c5.102 2.946 11.626 1.198 14.572-3.904l1.711-2.963h3.422c5.891 0 10.667-4.776 10.667-10.667v-3.422l2.963-1.711c5.102-2.946 6.85-9.47 3.904-14.572zM85.832 33.273c2.252 1.3 3.862 3.399 4.535 5.91 0.673 2.511 0.328 5.135-0.972 7.386l-1.441 2.497-4.618-7.999v-9.236zM73.72 73.72l-15.038 8.682h-17.364l-15.038-8.682-8.682-15.038v-17.364l8.682-15.038 15.038-8.682h17.364l15.038 8.682 8.682 15.038v17.364zM82.401 60.549v8.158l-7.065 4.079zM72.786 75.336l-4.079 7.065h-8.158zM57.065 83.335l-7.065 4.079-7.065-4.079zM39.451 82.401h-8.158l-4.079-7.065zM24.664 72.786l-7.065-4.079v-8.158zM16.665 57.065l-4.079-7.065 4.079-7.065zM17.599 39.451v-8.158l7.065-4.079zM27.214 24.664l4.079-7.065h8.158zM42.935 16.665l7.065-4.079 7.065 4.079zM60.549 17.599h8.158l4.079 7.065zM75.336 27.214l7.065 4.079v8.158zM83.335 42.935l4.079 7.065-4.079 7.065zM72.668 17.599c2.6 0 5.044 1.012 6.883 2.851 1.838 1.838 2.851 4.283 2.851 6.883v2.883l-7.999-4.618-4.618-7.999zM53.43 10.606c2.252-1.3 4.875-1.645 7.386-0.972 2.511 0.673 4.61 2.284 5.91 4.535l1.441 2.497h-9.236l-7.999-4.618zM33.273 14.168c1.3-2.252 3.399-3.862 5.91-4.535 2.511-0.673 5.135-0.328 7.386 0.972l2.497 1.441-7.999 4.618h-9.236zM17.599 27.332c0-2.6 1.012-5.044 2.851-6.883 1.838-1.838 4.283-2.851 6.883-2.851h2.883l-4.618 7.999-7.999 4.618zM10.606 46.57c-1.3-2.252-1.645-4.875-0.972-7.386 0.673-2.511 2.284-4.61 4.535-5.91l2.497-1.441v9.236l-4.618 7.999zM14.168 66.727c-2.252-1.3-3.862-3.399-4.535-5.91-0.673-2.511-0.328-5.135 0.972-7.386l1.441-2.497 4.618 7.999v9.236zM27.332 82.401c-2.6 0-5.044-1.012-6.883-2.851-1.838-1.838-2.851-4.283-2.851-6.883v-2.883l7.999 4.618 4.618 7.999zM46.57 89.394c-2.252 1.3-4.875 1.645-7.386 0.972-2.511-0.673-4.61-2.284-5.91-4.535l-1.441-2.497h9.236l7.999 4.618zM66.727 85.832c-1.3 2.252-3.399 3.862-5.91 4.535-2.511 0.673-5.135 0.328-7.386-0.972l-2.497-1.441 7.999-4.618h9.236zM82.401 72.668c0 2.6-1.012 5.044-2.851 6.883-1.838 1.838-4.283 2.851-6.883 2.851h-2.883l4.618-7.999 7.999-4.618zM90.367 60.816c-0.673 2.511-2.284 4.61-4.535 5.91l-2.497 1.441v-9.236l4.618-7.999 1.441 2.497c1.3 2.253 1.646 4.876 0.973 7.387z" fill="#a437db" fill-rule="nonzero" stroke="none" stroke-width="1" stroke-linecap="butt" stroke-linejoin="miter" stroke-miterlimit="10" stroke-dasharray="" stroke-dashoffset="0" font-family="none" font-weight="none" font-size="none" text-anchor="none" style="mix-blend-mode: normal" data-fill-palette-color="tertiary"></path></g><g transform="matrix(1,0,0,1,70,90)"><svg viewBox="0 0 180 180" height="180" width="180"><g><svg viewBox="0 0 180 180" height="180" width="180"><g><svg viewBox="0 0 180 180" height="180" width="180"><g id="textblocktransform"><svg viewBox="0 0 180 180" height="180" width="180" id="textblock"><g><svg viewBox="0 0 180 180" height="180" width="180"><g transform="matrix(1,0,0,1,58.18019484660536,66.00220680498259)"><svg viewBox="0 0 63.63961030678928 47.99558639003483" height="47.99558639003483" width="63.63961030678928"><g id="icon-0"><svg xmlns="http://www.w3.org/2000/svg" xmlns:xlink="http://www.w3.org/1999/xlink" version="1.1" x="0" y="0" viewBox="5.00124293236127 16.063080632494444 89.99855493066025 67.87491936750557" enable-background="new 0 0 100 100" xml:space="preserve" height="47.99558639003483" width="63.63961030678928" class="icon-xg-0" data-fill-palette-color="accent" id="xg-0"><path d="M28.48 39.783c0.629 0.153 1.015 0.786 0.862 1.415-0.253 1.044-0.466 2.114-0.631 3.18-0.09 0.579-0.588 0.992-1.156 0.992-0.06 0-0.12-0.004-0.181-0.014-0.639-0.099-1.077-0.698-0.979-1.337 0.175-1.131 0.4-2.266 0.669-3.374C27.218 40.017 27.851 39.63 28.48 39.783zM35.21 72.409c4.14-6.383 6.431-14.006 6.431-22.053 0-7.954-2.328-15.602-6.46-22.005 0.2-0.282 0.397-0.567 0.603-0.841 0.388-0.518 0.284-1.252-0.234-1.64-0.517-0.389-1.251-0.284-1.64 0.233-0.049 0.065-0.095 0.134-0.143 0.2-2.909-3.938-6.54-7.32-10.76-9.89-0.554-0.337-1.274-0.161-1.61 0.392-0.336 0.553-0.161 1.273 0.392 1.61 0.681 0.415 1.346 0.853 1.994 1.311-0.214 0.032-0.422 0.121-0.597 0.273-0.86 0.75-1.699 1.55-2.492 2.379-0.448 0.468-0.432 1.209 0.036 1.657 0.227 0.217 0.519 0.325 0.81 0.325 0.308 0 0.616-0.121 0.846-0.361 0.745-0.778 1.532-1.529 2.339-2.234 0.309-0.269 0.441-0.664 0.39-1.042 2.777 2.171 5.209 4.748 7.239 7.625-0.129 0.199-0.264 0.395-0.389 0.596-0.342 0.549-0.173 1.272 0.376 1.614 0.192 0.12 0.406 0.177 0.618 0.177 0.28 0 0.554-0.104 0.769-0.292 3.569 5.857 5.569 12.752 5.569 19.914 0 7.222-1.954 14.078-5.504 19.905-0.038-0.063-0.081-0.125-0.119-0.188-0.334-0.554-1.054-0.731-1.608-0.398-0.555 0.334-0.733 1.054-0.399 1.608 0.229 0.379 0.469 0.753 0.711 1.126-2.612 3.677-5.901 6.866-9.77 9.373-0.543 0.352-0.698 1.077-0.347 1.62 0.225 0.346 0.601 0.534 0.984 0.534 0.218 0 0.439-0.061 0.636-0.188 0.665-0.431 1.313-0.881 1.945-1.349 0.067 0.084 0.142 0.163 0.234 0.229 0.457 0.327 0.922 0.644 1.383 0.941 0.197 0.127 0.417 0.188 0.636 0.188 0.384 0 0.76-0.188 0.985-0.535 0.352-0.543 0.196-1.269-0.347-1.62-0.337-0.219-0.677-0.449-1.015-0.686 2.31-1.943 4.366-4.142 6.144-6.545 0.186 0.113 0.395 0.18 0.61 0.18 0.238 0 0.479-0.072 0.687-0.223 0.524-0.38 0.641-1.112 0.262-1.637C35.339 72.6 35.276 72.502 35.21 72.409zM29.287 59.283c-0.239-1.013-0.44-2.051-0.596-3.085-0.097-0.641-0.692-1.082-1.334-0.983-0.64 0.096-1.08 0.693-0.983 1.333 0.167 1.099 0.379 2.199 0.633 3.274 0.127 0.539 0.608 0.902 1.139 0.902 0.089 0 0.18-0.011 0.271-0.032C29.045 60.544 29.435 59.913 29.287 59.283zM29.551 67.264c0.197 0.432 0.622 0.687 1.067 0.687 0.163 0 0.328-0.034 0.485-0.106 0.589-0.269 0.849-0.963 0.58-1.552-0.432-0.947-0.83-1.927-1.183-2.91-0.218-0.609-0.89-0.927-1.499-0.707-0.609 0.218-0.926 0.89-0.707 1.498C28.67 65.218 29.092 66.258 29.551 67.264zM31.305 32.465c-0.585-0.275-1.283-0.023-1.559 0.562-0.485 1.033-0.932 2.101-1.329 3.174-0.224 0.607 0.087 1.281 0.694 1.505 0.134 0.049 0.271 0.073 0.405 0.073 0.477 0 0.925-0.293 1.1-0.767 0.373-1.011 0.794-2.017 1.25-2.989C32.143 33.438 31.891 32.74 31.305 32.465zM47.529 32.465c-0.585-0.275-1.283-0.023-1.559 0.562-0.486 1.033-0.933 2.102-1.328 3.175-0.224 0.607 0.087 1.28 0.694 1.504 0.134 0.049 0.271 0.073 0.405 0.073 0.477 0 0.925-0.293 1.099-0.767 0.373-1.011 0.793-2.016 1.25-2.989C48.366 33.438 48.115 32.74 47.529 32.465zM45.775 67.265c0.197 0.432 0.622 0.687 1.067 0.687 0.163 0 0.328-0.035 0.485-0.106 0.589-0.269 0.849-0.963 0.58-1.552-0.432-0.948-0.83-1.927-1.183-2.91-0.218-0.609-0.889-0.927-1.498-0.708s-0.926 0.89-0.708 1.499C44.894 65.218 45.316 66.258 45.775 67.265zM45.511 59.284c-0.239-1.014-0.44-2.052-0.596-3.086-0.097-0.64-0.692-1.082-1.333-0.983-0.64 0.097-1.08 0.693-0.983 1.333 0.166 1.098 0.378 2.199 0.632 3.274 0.127 0.539 0.608 0.902 1.139 0.902 0.089 0 0.18-0.011 0.27-0.031C45.269 60.545 45.659 59.913 45.511 59.284zM51.434 72.409c4.141-6.383 6.432-14.006 6.432-22.053 0-7.954-2.329-15.603-6.461-22.006 0.199-0.281 0.396-0.566 0.603-0.84 0.388-0.518 0.283-1.252-0.234-1.64-0.517-0.389-1.251-0.285-1.64 0.233-0.049 0.065-0.095 0.134-0.144 0.2-1.873-2.535-4.044-4.839-6.481-6.844 0.08 0.017 0.161 0.029 0.243 0.029 0.226 0 0.453-0.065 0.654-0.201 0.444-0.299 0.902-0.593 1.361-0.872 0.553-0.336 0.728-1.057 0.391-1.61-0.336-0.553-1.057-0.729-1.61-0.392-0.489 0.298-0.978 0.611-1.452 0.931-0.484 0.326-0.643 0.949-0.405 1.462-1.104-0.858-2.257-1.661-3.461-2.393-0.553-0.337-1.273-0.161-1.61 0.392s-0.161 1.273 0.392 1.61c0.763 0.464 1.502 0.959 2.223 1.479-0.292-0.014-0.588 0.078-0.825 0.285-0.86 0.75-1.698 1.55-2.492 2.379-0.447 0.468-0.431 1.209 0.036 1.657 0.227 0.217 0.519 0.325 0.81 0.325 0.309 0 0.617-0.121 0.847-0.361 0.745-0.778 1.532-1.53 2.339-2.233 0.37-0.322 0.487-0.825 0.338-1.262 2.798 2.179 5.248 4.77 7.291 7.665-0.129 0.199-0.264 0.396-0.389 0.596-0.342 0.549-0.173 1.272 0.376 1.614 0.193 0.12 0.406 0.177 0.618 0.177 0.28 0 0.554-0.104 0.77-0.293 3.569 5.858 5.57 12.753 5.57 19.915 0 7.222-1.954 14.079-5.504 19.906-0.039-0.063-0.081-0.125-0.119-0.188-0.334-0.555-1.054-0.732-1.608-0.399-0.554 0.334-0.733 1.054-0.399 1.608 0.229 0.379 0.469 0.753 0.711 1.126-2.612 3.677-5.901 6.866-9.77 9.373-0.543 0.352-0.698 1.077-0.346 1.62 0.224 0.346 0.6 0.534 0.984 0.534 0.219 0 0.439-0.061 0.636-0.188 0.635-0.411 1.253-0.842 1.859-1.287 0.08 0.132 0.187 0.251 0.32 0.346 0.452 0.323 0.917 0.64 1.383 0.941 0.197 0.128 0.418 0.188 0.636 0.188 0.384 0 0.76-0.188 0.984-0.534 0.352-0.543 0.197-1.269-0.346-1.62-0.381-0.247-0.759-0.508-1.131-0.77 2.356-1.967 4.452-4.197 6.26-6.641 0.186 0.114 0.395 0.18 0.61 0.18 0.238 0 0.478-0.072 0.686-0.223 0.524-0.379 0.642-1.111 0.262-1.636C51.563 72.601 51.5 72.503 51.434 72.409zM25.946 48.638c-0.023 0.563-0.035 1.142-0.035 1.719 0 0.552 0.011 1.113 0.033 1.667 0.025 0.631 0.544 1.125 1.17 1.125 0.016 0 0.031 0 0.047-0.001 0.646-0.025 1.149-0.57 1.124-1.217-0.021-0.522-0.032-1.052-0.032-1.574 0-0.544 0.012-1.09 0.034-1.622 0.027-0.646-0.476-1.192-1.122-1.219C26.523 47.489 25.973 47.992 25.946 48.638zM27.527 19.309c0.226 0 0.454-0.065 0.655-0.201 0.439-0.297 0.897-0.59 1.36-0.872 0.553-0.336 0.728-1.057 0.391-1.61s-1.057-0.729-1.61-0.391c-0.494 0.3-0.983 0.614-1.453 0.931-0.536 0.362-0.677 1.09-0.315 1.626C26.782 19.128 27.151 19.309 27.527 19.309zM13.327 67.085c0.197 0.431 0.622 0.686 1.067 0.686 0.163 0 0.328-0.034 0.485-0.105 0.589-0.269 0.849-0.963 0.58-1.552-0.433-0.948-0.83-1.928-1.183-2.91-0.218-0.609-0.889-0.926-1.498-0.708-0.609 0.219-0.926 0.89-0.708 1.498C12.445 65.038 12.868 66.078 13.327 67.085zM19.045 72.315c4.102-6.364 6.372-13.952 6.372-21.959 0-7.993-2.352-15.676-6.522-22.099 0.219-0.312 0.438-0.624 0.665-0.927 0.388-0.518 0.284-1.252-0.234-1.64-0.517-0.389-1.251-0.285-1.64 0.233-0.071 0.095-0.139 0.196-0.209 0.292-2.898-3.901-6.505-7.252-10.695-9.802-0.554-0.337-1.274-0.161-1.61 0.392-0.336 0.553-0.161 1.273 0.392 1.61 4.16 2.532 7.71 5.907 10.507 9.847-0.108 0.168-0.223 0.333-0.328 0.503-0.342 0.549-0.173 1.272 0.376 1.613 0.192 0.12 0.406 0.177 0.617 0.177 0.25 0 0.49-0.088 0.693-0.237 3.617 5.884 5.646 12.826 5.646 20.038 0 7.184-1.935 14.006-5.45 19.812-0.056-0.092-0.117-0.182-0.173-0.274-0.334-0.554-1.053-0.732-1.608-0.399-0.554 0.334-0.733 1.054-0.399 1.608 0.248 0.411 0.508 0.818 0.771 1.222-2.621 3.712-5.932 6.931-9.83 9.457-0.543 0.352-0.698 1.077-0.346 1.62 0.224 0.346 0.601 0.534 0.984 0.534 0.218 0 0.439-0.061 0.636-0.188 3.95-2.56 7.332-5.788 10.054-9.498 0.163 0.08 0.341 0.122 0.522 0.122 0.238 0 0.479-0.072 0.686-0.223 0.524-0.379 0.641-1.111 0.262-1.636C19.136 72.448 19.092 72.381 19.045 72.315zM23.315 80.073c0.317 0 0.634-0.128 0.865-0.382 0.437-0.478 0.403-1.219-0.075-1.655-0.769-0.701-1.516-1.446-2.221-2.215-0.438-0.477-1.179-0.509-1.656-0.07-0.476 0.438-0.507 1.18-0.07 1.656 0.752 0.817 1.548 1.611 2.366 2.359C22.75 79.972 23.033 80.073 23.315 80.073zM86.435 24.54c0.309 0 0.616-0.121 0.847-0.361 0.744-0.777 1.531-1.529 2.339-2.234 0.488-0.425 0.539-1.165 0.113-1.653s-1.166-0.539-1.652-0.113c-0.862 0.751-1.7 1.552-2.493 2.379-0.447 0.467-0.431 1.209 0.037 1.657C85.852 24.432 86.144 24.54 86.435 24.54zM10.841 40.466c-0.269 1.108-0.494 2.243-0.669 3.375-0.099 0.639 0.339 1.238 0.979 1.337 0.061 0.009 0.121 0.014 0.181 0.014 0.568 0 1.067-0.414 1.157-0.993 0.165-1.066 0.377-2.136 0.631-3.18 0.152-0.629-0.233-1.262-0.862-1.415C11.627 39.452 10.994 39.837 10.841 40.466zM9.722 48.459c-0.023 0.569-0.035 1.147-0.035 1.718 0 0.545 0.011 1.105 0.033 1.666 0.025 0.631 0.544 1.126 1.17 1.126 0.015 0 0.031-0.001 0.046-0.001 0.646-0.025 1.15-0.57 1.125-1.217-0.021-0.529-0.031-1.06-0.031-1.574 0-0.539 0.011-1.085 0.033-1.622 0.027-0.646-0.476-1.192-1.123-1.219C10.29 47.302 9.749 47.813 9.722 48.459zM13.062 59.104c-0.24-1.015-0.44-2.053-0.596-3.085-0.097-0.64-0.692-1.08-1.333-0.984-0.64 0.097-1.08 0.694-0.983 1.334 0.166 1.096 0.378 2.197 0.632 3.274 0.127 0.539 0.608 0.902 1.14 0.902 0.089 0 0.18-0.011 0.271-0.032C12.821 60.365 13.211 59.734 13.062 59.104zM15.082 32.286c-0.585-0.275-1.283-0.023-1.559 0.562-0.486 1.034-0.933 2.102-1.329 3.175-0.224 0.607 0.087 1.281 0.694 1.505 0.134 0.049 0.271 0.073 0.405 0.073 0.477 0 0.925-0.293 1.1-0.767 0.373-1.01 0.793-2.016 1.25-2.989C15.918 33.259 15.667 32.562 15.082 32.286zM39.539 80.252c0.318 0 0.634-0.128 0.866-0.381 0.436-0.478 0.403-1.219-0.075-1.655-0.766-0.7-1.514-1.445-2.222-2.216-0.437-0.476-1.179-0.507-1.655-0.069s-0.508 1.179-0.07 1.655c0.754 0.82 1.55 1.614 2.366 2.359C38.974 80.151 39.257 80.252 39.539 80.252zM79.977 32.465c-0.585-0.274-1.283-0.023-1.559 0.562-0.486 1.035-0.934 2.104-1.328 3.174-0.225 0.607 0.086 1.281 0.693 1.505 0.134 0.049 0.271 0.073 0.405 0.073 0.478 0 0.925-0.293 1.1-0.767 0.372-1.009 0.793-2.014 1.251-2.989C80.814 33.438 80.562 32.74 79.977 32.465zM43.289 40.646c-0.27 1.109-0.495 2.244-0.669 3.375-0.099 0.639 0.339 1.238 0.979 1.337 0.061 0.009 0.121 0.014 0.181 0.014 0.568 0 1.067-0.414 1.157-0.993 0.165-1.065 0.376-2.135 0.63-3.18 0.153-0.629-0.233-1.262-0.862-1.415C44.074 39.63 43.441 40.017 43.289 40.646zM77.958 59.283c-0.239-1.013-0.439-2.051-0.596-3.085-0.098-0.64-0.698-1.08-1.334-0.983-0.64 0.097-1.08 0.693-0.983 1.333 0.166 1.098 0.379 2.199 0.633 3.274 0.127 0.539 0.608 0.902 1.14 0.902 0.089 0 0.179-0.011 0.27-0.031C77.717 60.545 78.106 59.913 77.958 59.283zM84.454 27.51c0.39-0.518 0.284-1.252-0.233-1.641-0.517-0.388-1.252-0.284-1.64 0.234-0.026 0.035-0.052 0.073-0.078 0.109-1.824-2.484-3.937-4.745-6.301-6.725 0.225 0 0.45-0.065 0.65-0.2 0.446-0.301 0.903-0.594 1.359-0.872 0.553-0.336 0.729-1.058 0.392-1.61-0.336-0.552-1.056-0.729-1.609-0.392-0.487 0.296-0.977 0.61-1.452 0.931-0.408 0.275-0.586 0.763-0.489 1.217-1.079-0.833-2.203-1.613-3.376-2.327-0.554-0.336-1.273-0.161-1.61 0.392s-0.161 1.273 0.392 1.61c0.883 0.538 1.735 1.116 2.562 1.727-0.387-0.139-0.833-0.074-1.164 0.215-0.861 0.75-1.7 1.551-2.492 2.379-0.447 0.468-0.432 1.209 0.036 1.657 0.227 0.217 0.519 0.325 0.811 0.325 0.308 0 0.616-0.121 0.846-0.361 0.744-0.777 1.531-1.529 2.34-2.234 0.461-0.402 0.526-1.083 0.172-1.569 2.896 2.227 5.422 4.894 7.518 7.881-0.149 0.229-0.305 0.456-0.449 0.688-0.342 0.549-0.174 1.272 0.376 1.614 0.192 0.12 0.406 0.177 0.617 0.177 0.312 0 0.614-0.129 0.838-0.359 3.526 5.833 5.502 12.687 5.502 19.802 0 7.26-1.974 14.151-5.56 19.998-0.021-0.035-0.044-0.067-0.064-0.103-0.334-0.554-1.054-0.733-1.608-0.398-0.554 0.334-0.732 1.054-0.398 1.608 0.209 0.347 0.43 0.688 0.65 1.029-2.602 3.642-5.87 6.803-9.709 9.29-0.543 0.352-0.698 1.077-0.347 1.621 0.225 0.346 0.601 0.534 0.984 0.534 0.219 0 0.439-0.062 0.637-0.188 0.612-0.396 1.208-0.812 1.794-1.24 0.081 0.185 0.208 0.353 0.385 0.479 0.453 0.323 0.919 0.64 1.384 0.94 0.197 0.128 0.417 0.188 0.636 0.188 0.384 0 0.76-0.188 0.984-0.534 0.352-0.543 0.196-1.269-0.347-1.62-0.42-0.272-0.839-0.559-1.25-0.851 2.366-1.959 4.475-4.181 6.292-6.617 0.204 0.152 0.448 0.237 0.697 0.237 0.238 0 0.479-0.072 0.687-0.223 0.524-0.38 0.642-1.112 0.262-1.636-0.087-0.121-0.17-0.248-0.256-0.37 4.178-6.401 6.49-14.061 6.49-22.146 0-7.915-2.305-15.527-6.399-21.912C84.093 28.013 84.27 27.757 84.454 27.51zM78.223 67.264c0.196 0.432 0.622 0.687 1.066 0.687 0.163 0 0.328-0.034 0.485-0.106 0.589-0.269 0.849-0.963 0.58-1.552-0.431-0.946-0.829-1.926-1.183-2.91-0.218-0.609-0.89-0.927-1.498-0.707-0.609 0.218-0.926 0.89-0.707 1.498C77.342 65.219 77.765 66.259 78.223 67.264zM93.614 81.782c-0.438-0.284-0.873-0.581-1.295-0.882-0.526-0.376-1.258-0.254-1.634 0.272s-0.255 1.258 0.271 1.634c0.451 0.322 0.916 0.639 1.383 0.941 0.197 0.128 0.418 0.188 0.637 0.188 0.384 0 0.76-0.188 0.984-0.534C94.312 82.859 94.158 82.134 93.614 81.782zM75.736 40.646c-0.269 1.11-0.494 2.245-0.669 3.374-0.099 0.64 0.339 1.238 0.979 1.337 0.061 0.009 0.121 0.014 0.181 0.014 0.568 0 1.067-0.414 1.156-0.992 0.165-1.064 0.377-2.135 0.631-3.181 0.152-0.629-0.233-1.262-0.863-1.415C76.521 39.631 75.889 40.018 75.736 40.646zM94.829 16.806c-0.336-0.552-1.057-0.729-1.61-0.392-0.485 0.295-0.974 0.609-1.452 0.931-0.536 0.361-0.678 1.09-0.316 1.626 0.227 0.336 0.596 0.517 0.973 0.517 0.226 0 0.453-0.065 0.654-0.201 0.447-0.302 0.905-0.595 1.36-0.872C94.99 18.08 95.165 17.358 94.829 16.806zM74.617 48.639c-0.023 0.566-0.035 1.145-0.035 1.718 0 0.548 0.011 1.109 0.033 1.666 0.024 0.631 0.544 1.126 1.17 1.126 0.015 0 0.031 0 0.046-0.001 0.647-0.025 1.15-0.569 1.125-1.216-0.021-0.527-0.03-1.057-0.03-1.575 0-0.542 0.011-1.087 0.032-1.622 0.026-0.646-0.476-1.192-1.123-1.219C75.199 47.491 74.644 47.993 74.617 48.639zM86.78 76.001c-0.438-0.478-1.179-0.51-1.655-0.07-0.477 0.438-0.508 1.179-0.07 1.655 0.751 0.816 1.546 1.61 2.366 2.359 0.225 0.206 0.508 0.307 0.79 0.307 0.317 0 0.635-0.128 0.865-0.381 0.437-0.478 0.403-1.219-0.074-1.655C88.231 77.512 87.484 76.767 86.78 76.001zM55.763 80.253c0.318 0 0.635-0.129 0.866-0.382 0.436-0.478 0.402-1.219-0.075-1.655-0.77-0.703-1.517-1.448-2.221-2.215-0.438-0.477-1.179-0.509-1.655-0.07-0.477 0.438-0.509 1.179-0.07 1.655 0.75 0.816 1.546 1.61 2.365 2.36C55.198 80.151 55.48 80.253 55.763 80.253zM67.657 72.409c4.141-6.383 6.432-14.006 6.432-22.053 0-7.954-2.328-15.602-6.461-22.005 0.199-0.282 0.396-0.567 0.603-0.842 0.389-0.518 0.284-1.252-0.233-1.64-0.518-0.389-1.252-0.284-1.64 0.233-0.05 0.065-0.096 0.135-0.145 0.201-1.872-2.536-4.045-4.839-6.481-6.845 0.079 0.017 0.16 0.029 0.242 0.029 0.226 0 0.453-0.065 0.654-0.201 0.444-0.299 0.902-0.593 1.36-0.872 0.553-0.336 0.729-1.057 0.392-1.61-0.337-0.553-1.058-0.728-1.61-0.392-0.489 0.298-0.978 0.611-1.452 0.931-0.483 0.326-0.643 0.948-0.405 1.461-1.104-0.858-2.257-1.66-3.46-2.393-0.553-0.336-1.273-0.161-1.609 0.392-0.337 0.553-0.161 1.273 0.391 1.61 0.763 0.464 1.502 0.959 2.223 1.478-0.291-0.014-0.587 0.079-0.823 0.285-0.861 0.75-1.7 1.551-2.492 2.379-0.447 0.468-0.432 1.209 0.036 1.657 0.227 0.217 0.519 0.325 0.811 0.325 0.308 0 0.616-0.121 0.846-0.361 0.744-0.777 1.531-1.529 2.34-2.234 0.369-0.321 0.486-0.823 0.339-1.259 2.798 2.179 5.247 4.77 7.289 7.664-0.129 0.199-0.264 0.395-0.388 0.595-0.342 0.549-0.174 1.272 0.376 1.614 0.192 0.12 0.406 0.177 0.617 0.177 0.28 0 0.554-0.104 0.769-0.292 3.569 5.857 5.57 12.752 5.57 19.914 0 7.222-1.954 14.079-5.505 19.905-0.038-0.062-0.08-0.124-0.119-0.188-0.333-0.555-1.053-0.733-1.607-0.399s-0.733 1.055-0.399 1.608c0.229 0.379 0.47 0.753 0.711 1.126-2.611 3.677-5.9 6.866-9.77 9.373-0.542 0.352-0.697 1.077-0.346 1.62 0.225 0.346 0.601 0.534 0.984 0.534 0.219 0 0.439-0.061 0.636-0.188 0.635-0.411 1.254-0.842 1.858-1.286 0.081 0.132 0.188 0.25 0.321 0.346 0.458 0.326 0.924 0.643 1.384 0.94 0.196 0.128 0.417 0.188 0.636 0.188 0.384 0 0.76-0.188 0.984-0.534 0.352-0.543 0.196-1.269-0.347-1.62-0.377-0.244-0.756-0.503-1.133-0.769 2.357-1.967 4.453-4.197 6.262-6.642 0.186 0.114 0.395 0.18 0.61 0.18 0.238 0 0.479-0.072 0.686-0.223 0.524-0.379 0.642-1.111 0.262-1.636C67.787 72.601 67.724 72.503 67.657 72.409zM61.999 67.265c0.196 0.431 0.622 0.686 1.066 0.686 0.163 0 0.328-0.034 0.485-0.105 0.589-0.269 0.849-0.964 0.58-1.553-0.432-0.945-0.829-1.925-1.183-2.91-0.218-0.608-0.89-0.927-1.498-0.707-0.609 0.219-0.926 0.89-0.707 1.499C61.118 65.219 61.541 66.26 61.999 67.265zM42.17 48.639c-0.023 0.573-0.036 1.151-0.036 1.718 0 0.552 0.011 1.113 0.033 1.667 0.025 0.631 0.544 1.125 1.17 1.125 0.016 0 0.032 0 0.047-0.001 0.646-0.025 1.15-0.57 1.124-1.217-0.021-0.522-0.031-1.052-0.031-1.574 0-0.535 0.011-1.081 0.033-1.622 0.026-0.646-0.476-1.192-1.123-1.219C42.744 47.491 42.196 47.993 42.17 48.639zM58.394 48.638c-0.023 0.564-0.035 1.143-0.035 1.719 0 0.559 0.011 1.12 0.033 1.667 0.024 0.631 0.544 1.125 1.17 1.125 0.016 0 0.031 0 0.048-0.001 0.646-0.025 1.149-0.57 1.124-1.217-0.021-0.517-0.031-1.046-0.031-1.574 0-0.544 0.011-1.09 0.033-1.622 0.026-0.646-0.476-1.192-1.122-1.219C58.977 47.483 58.421 47.992 58.394 48.638zM59.513 40.646c-0.27 1.11-0.494 2.245-0.669 3.374-0.099 0.64 0.339 1.238 0.979 1.337 0.061 0.009 0.121 0.014 0.181 0.014 0.568 0 1.066-0.414 1.156-0.992 0.165-1.064 0.377-2.135 0.631-3.181 0.152-0.629-0.234-1.262-0.863-1.415C60.297 39.631 59.665 40.018 59.513 40.646zM61.734 59.283c-0.24-1.014-0.44-2.052-0.596-3.085-0.097-0.64-0.692-1.08-1.333-0.983-0.64 0.096-1.081 0.693-0.984 1.333 0.165 1.096 0.378 2.197 0.633 3.274 0.127 0.539 0.607 0.902 1.139 0.902 0.089 0 0.18-0.011 0.271-0.031C61.493 60.545 61.883 59.913 61.734 59.283zM71.986 80.253c0.318 0 0.635-0.129 0.866-0.382 0.436-0.478 0.402-1.219-0.075-1.655-0.77-0.703-1.518-1.448-2.222-2.215-0.437-0.477-1.179-0.509-1.654-0.07-0.478 0.438-0.509 1.179-0.07 1.655 0.75 0.816 1.546 1.61 2.365 2.36C71.422 80.151 71.704 80.253 71.986 80.253zM63.752 32.465c-0.584-0.274-1.282-0.023-1.559 0.562-0.485 1.035-0.933 2.104-1.328 3.174-0.224 0.607 0.087 1.281 0.694 1.505 0.134 0.049 0.271 0.073 0.405 0.073 0.477 0 0.925-0.293 1.1-0.767 0.372-1.009 0.792-2.014 1.251-2.989C64.59 33.438 64.338 32.74 63.752 32.465z" fill="#bb84e8" data-fill-palette-color="accent"></path></svg></g></svg></g><g id="text-0"><path d="M21.946 60.498l-0.823 2.464-8.384 0.872c-0.019 0.12-0.067 0.296-0.145 0.529v0l-0.511 1.529 7.251 2.424-0.748 2.237-16.995-5.679 1.136-3.399c0.665-1.989 1.571-3.33 2.72-4.024 1.142-0.696 2.487-0.785 4.036-0.268v0c1.083 0.362 1.929 0.928 2.539 1.699 0.61 0.771 0.939 1.692 0.986 2.764v0zM10.8 63.984c0.395-1.183 0.423-2.126 0.084-2.827-0.346-0.703-1.076-1.241-2.19-1.613v0c-1.039-0.347-1.892-0.328-2.56 0.057-0.666 0.379-1.213 1.211-1.641 2.495v0l-0.379 1.133 6.241 2.086z" fill="#a437db" data-fill-palette-color="primary"></path><path d="M24.485 42.159c0.324 0.207 0.649 0.438 0.975 0.693v0l-3.862 6.05c1.427 0.824 2.554 1.217 3.381 1.178 0.824-0.033 1.475-0.424 1.954-1.174v0c0.307-0.481 0.507-0.96 0.599-1.437 0.086-0.48 0.092-1.032 0.016-1.654v0l1.713-0.111c0.3 1.553 0.035 2.979-0.793 4.276v0c-0.878 1.376-2.067 2.121-3.565 2.236-1.5 0.105-3.207-0.453-5.12-1.674v0c-1.913-1.221-3.185-2.541-3.815-3.959-0.63-1.418-0.526-2.784 0.314-4.099v0c0.814-1.275 1.918-1.944 3.312-2.007 1.392-0.072 3.022 0.489 4.891 1.682zM22.877 43.754l-0.151-0.097c-1.253-0.8-2.274-1.211-3.063-1.234-0.785-0.029-1.406 0.315-1.862 1.031v0c-0.411 0.643-0.444 1.331-0.1 2.062 0.344 0.731 1.168 1.556 2.471 2.475v0z" fill="#a437db" data-fill-palette-color="primary"></path><path d="M27.005 24.095c-0.399 0.389-0.594 0.774-0.584 1.155 0.005 0.376 0.221 0.782 0.647 1.218v0l1.523 1.56 1.973-1.926 1.067 1.463-1.788 1.745 8.324 8.526-1.638 1.6-8.324-8.526-1.361 1.328-1.251-1.282 1.36-1.328-1.509-1.546c-0.751-0.769-1.126-1.619-1.124-2.548-0.003-0.934 0.416-1.811 1.257-2.632v0c0.684-0.668 1.513-1.148 2.488-1.441v0l0.642 1.627c-0.679 0.227-1.246 0.562-1.702 1.007z" fill="#a437db" data-fill-palette-color="primary"></path><path d="M48.683 29.598c-0.622 0.442-1.26 0.598-1.914 0.469-0.654-0.13-1.221-0.532-1.701-1.209v0l-9.753-13.72 1.716-1.537 9.868 13.882c0.335 0.471 0.699 0.566 1.094 0.285v0c0.184-0.131 0.335-0.291 0.453-0.48v0l1.321 0.966c-0.23 0.546-0.592 0.995-1.084 1.344z" fill="#a437db" data-fill-palette-color="primary"></path><path d="M62.253 14.307c0.155 0.352 0.298 0.724 0.428 1.117v0l-6.566 2.899c0.732 1.476 1.453 2.427 2.164 2.854 0.704 0.429 1.463 0.464 2.276 0.104v0c0.522-0.231 0.953-0.519 1.294-0.865 0.338-0.352 0.648-0.808 0.93-1.368v0l1.488 0.855c-0.611 1.459-1.62 2.5-3.028 3.122v0c-1.493 0.659-2.896 0.622-4.207-0.112-1.307-0.743-2.42-2.153-3.336-4.229v0c-0.917-2.076-1.245-3.879-0.985-5.408 0.26-1.53 1.104-2.609 2.531-3.24v0c1.384-0.611 2.674-0.557 3.869 0.163 1.199 0.711 2.246 2.08 3.142 4.108zM60.03 14.744l-0.072-0.163c-0.601-1.36-1.223-2.268-1.866-2.724-0.638-0.458-1.345-0.516-2.123-0.173v0c-0.698 0.308-1.106 0.862-1.225 1.662-0.118 0.8 0.111 1.943 0.688 3.429v0z" fill="#a437db" data-fill-palette-color="primary"></path><path d="M75.265 4.198c0.685-0.128 1.319-0.132 1.902-0.012 0.589 0.119 1.187 0.389 1.792 0.808v0l-0.768 1.522c-0.452-0.253-0.876-0.423-1.271-0.512-0.4-0.08-0.812-0.081-1.236-0.001v0c-1.807 0.338-2.382 2.262-1.724 5.772v0c0.342 1.826 0.818 3.088 1.428 3.783 0.603 0.697 1.339 0.965 2.206 0.802v0c0.431-0.081 0.805-0.228 1.122-0.443 0.323-0.223 0.666-0.537 1.029-0.942v0l1.301 1.164c-0.833 1.176-1.873 1.88-3.118 2.114v0c-1.605 0.301-2.959-0.043-4.062-1.032-1.098-0.996-1.863-2.646-2.294-4.949v0c-0.42-2.244-0.298-4.076 0.368-5.497 0.664-1.428 1.773-2.287 3.325-2.577z" fill="#a437db" data-fill-palette-color="primary"></path><path d="M94.608 15.095l0.839 1.445c-0.792 0.604-1.672 0.894-2.641 0.869v0c-1.028-0.026-1.813-0.348-2.355-0.966-0.548-0.625-0.81-1.448-0.784-2.469v0l0.225-8.867-1.851-0.047 0.046-1.791 1.85 0.047 0.079-3.095 2.296-0.221-0.086 3.374 2.647 0.067-0.284 1.785-2.408-0.061-0.226 8.896c-0.024 0.955 0.368 1.443 1.178 1.464v0c0.279 0.007 0.522-0.023 0.729-0.091 0.214-0.061 0.462-0.174 0.746-0.339z" fill="#a437db" data-fill-palette-color="primary"></path><path d="M111.488 17.252c-0.111 0.478-0.124 0.847-0.041 1.104 0.083 0.258 0.261 0.49 0.534 0.696v0l-0.841 1.43c-0.605-0.242-1.054-0.553-1.347-0.935-0.293-0.381-0.446-0.883-0.46-1.506v0c-1.027 1.111-2.241 1.505-3.644 1.181v0c-1.093-0.253-1.881-0.82-2.365-1.701-0.483-0.888-0.584-1.94-0.303-3.156v0c0.327-1.416 1.018-2.401 2.072-2.954 1.053-0.547 2.416-0.627 4.091-0.239v0l1.319 0.304 0.28-1.212c0.203-0.879 0.177-1.563-0.077-2.051-0.249-0.487-0.738-0.814-1.469-0.983v0c-0.86-0.199-1.919-0.202-3.176-0.009v0l-0.189-1.699c1.502-0.28 2.854-0.28 4.056-0.002v0c1.371 0.317 2.304 0.921 2.8 1.812 0.496 0.891 0.59 2.003 0.282 3.334v0zM106.53 17.659c1.048 0.242 2.017-0.283 2.909-1.575v0l0.719-3.114-1.067-0.246c-1.067-0.247-1.902-0.198-2.506 0.146-0.602 0.338-1.014 0.982-1.233 1.932v0c-0.187 0.808-0.176 1.454 0.032 1.938 0.208 0.484 0.59 0.79 1.146 0.919z" fill="#a437db" data-fill-palette-color="primary"></path><path d="M139.64 14.203l1.933 1.072-11.19 14.284-2.707-1.502 5.156-14.386-9.5 11.977-2.664-1.478 6.211-17.045 2.002 1.11-5.793 14.898 10.006-12.561 2.272 1.261-5.366 15.134z" fill="#a437db" data-fill-palette-color="primary"></path><path d="M151.829 29.187c1.158 1.142 1.631 2.457 1.421 3.946-0.215 1.484-1.143 3.058-2.784 4.721v0c-1.547 1.569-3.099 2.494-4.655 2.778-1.551 0.278-2.901-0.149-4.049-1.282v0c-1.148-1.132-1.601-2.464-1.358-3.996 0.252-1.532 1.164-3.094 2.735-4.686v0c1.622-1.644 3.183-2.589 4.682-2.833 1.509-0.245 2.845 0.206 4.008 1.352zM150.529 30.505c-0.657-0.648-1.435-0.837-2.334-0.568-0.894 0.274-2.006 1.084-3.334 2.43v0c-1.314 1.332-2.104 2.45-2.371 3.353-0.266 0.912-0.078 1.685 0.565 2.319v0c0.657 0.648 1.439 0.832 2.348 0.554 0.904-0.274 2.02-1.084 3.348-2.43v0c1.314-1.332 2.1-2.45 2.357-3.353 0.257-0.903 0.064-1.671-0.579-2.305z" fill="#a437db" data-fill-palette-color="primary"></path><path d="M165.448 46.739c0.208 0.324 0.351 0.646 0.43 0.966v0l-2.07 0.866c-0.117-0.343-0.249-0.628-0.396-0.858v0c-0.365-0.57-0.923-0.874-1.674-0.913-0.741-0.037-1.701 0.181-2.88 0.653v0l-6.788 4.353-1.236-1.927 11.539-7.4 1.064 1.659-2.043 1.535c1.936-0.485 3.287-0.13 4.054 1.066z" fill="#a437db" data-fill-palette-color="primary"></path><path d="M178.068 61.873l0.553 2.237-18.024 6.682-0.706-1.904 1.582-0.746c-1.566-0.29-2.569-1.03-3.009-2.218v0c-0.494-1.332-0.284-2.57 0.629-3.715 0.915-1.139 2.415-2.095 4.5-2.868v0c1.35-0.501 2.601-0.763 3.753-0.787 1.161-0.02 2.134 0.182 2.921 0.606 0.789 0.429 1.335 1.052 1.637 1.866v0c0.415 1.12 0.258 2.222-0.472 3.308v0zM160.324 65.702c0.344 0.927 1.249 1.508 2.716 1.742v0l6.515-2.415c0.861-1.076 1.129-2.053 0.804-2.931v0c-0.277-0.747-0.9-1.177-1.87-1.292-0.967-0.108-2.304 0.153-4.009 0.786v0c-3.329 1.234-4.715 2.604-4.156 4.11z" fill="#a437db" data-fill-palette-color="primary"></path><path d="M8.82 127.553l-0.912-2.676 6.674-6.28c-0.062-0.119-0.135-0.304-0.221-0.556v0l-0.565-1.658-7.868 2.68-0.829-2.431 18.441-6.282 1.258 3.694c0.736 2.161 0.837 3.918 0.303 5.271-0.533 1.359-1.637 2.325-3.315 2.896v0c-1.175 0.4-2.28 0.468-3.317 0.204-1.036-0.264-1.929-0.847-2.678-1.748v0zM16.165 117.195c0.437 1.282 1.032 2.113 1.786 2.494 0.76 0.379 1.746 0.362 2.959-0.051v0c1.124-0.383 1.85-0.96 2.176-1.73 0.322-0.762 0.246-1.84-0.229-3.234v0l-0.42-1.235-6.766 2.305z" fill="#a437db" data-fill-palette-color="primary"></path><path d="M25.801 140.672c-0.345 0.224-0.718 0.441-1.119 0.653v0l-4.241-6.552c-1.461 1.041-2.36 1.978-2.697 2.813-0.337 0.835-0.244 1.656 0.279 2.464v0c0.335 0.518 0.72 0.929 1.154 1.233 0.434 0.304 0.976 0.562 1.627 0.773v0l-0.659 1.731c-1.672-0.396-2.964-1.299-3.876-2.709v0c-0.963-1.487-1.161-2.996-0.593-4.525 0.569-1.539 1.89-2.979 3.963-4.32v0c2.072-1.342 3.952-2.005 5.637-1.989 1.684 0.025 2.988 0.75 3.911 2.176v0c0.891 1.376 1.056 2.767 0.496 4.173-0.56 1.406-1.854 2.766-3.882 4.079zM24.943 138.357l0.167-0.108c1.365-0.884 2.237-1.705 2.615-2.464 0.384-0.762 0.325-1.531-0.176-2.305v0c-0.451-0.696-1.116-1.04-1.996-1.032-0.88 0.008-2.071 0.452-3.574 1.33v0z" fill="#a437db" data-fill-palette-color="primary"></path><path d="M43.131 142.613c-0.434-0.419-0.86-0.619-1.278-0.597-0.408 0.021-0.842 0.271-1.303 0.748v0l-1.646 1.705 2.156 2.081-1.563 1.203-1.948-1.881-8.996 9.317-1.79-1.729 8.996-9.317-1.49-1.438 1.355-1.403 1.49 1.438 1.632-1.69c0.811-0.84 1.721-1.276 2.73-1.308 1.013-0.027 1.981 0.404 2.902 1.294v0c0.745 0.719 1.295 1.601 1.651 2.646v0l-1.747 0.749c-0.266-0.728-0.65-1.333-1.151-1.818z" fill="#a437db" data-fill-palette-color="primary"></path><path d="M40.051 165.062c-0.675-0.482-1.066-1.083-1.172-1.803-0.097-0.721 0.117-1.449 0.642-2.184v0l10.627-14.894 2.188 1.219-10.755 15.072c-0.362 0.508-0.327 0.916 0.105 1.225v0c0.2 0.143 0.419 0.242 0.656 0.297v0l-0.529 1.701c-0.64-0.041-1.227-0.252-1.762-0.633z" fill="#a437db" data-fill-palette-color="primary"></path><path d="M62.697 167.433c-0.168 0.376-0.362 0.761-0.583 1.157v0l-7.123-3.188c-0.659 1.668-0.903 2.944-0.732 3.828 0.172 0.884 0.696 1.522 1.575 1.915v0c0.563 0.252 1.11 0.388 1.639 0.407 0.53 0.019 1.125-0.06 1.786-0.237v0l0.389 1.81c-1.618 0.577-3.193 0.523-4.726-0.163v0c-1.617-0.724-2.604-1.882-2.96-3.474-0.36-1.601-0.035-3.528 0.973-5.781v0c1.009-2.253 2.224-3.832 3.647-4.736 1.426-0.896 2.915-0.997 4.466-0.303v0c1.496 0.67 2.392 1.747 2.687 3.231 0.295 1.485-0.051 3.329-1.038 5.534zM60.718 165.959l0.081-0.182c0.664-1.484 0.949-2.647 0.854-3.49-0.093-0.849-0.56-1.461-1.403-1.838v0c-0.757-0.339-1.503-0.265-2.236 0.22-0.734 0.486-1.492 1.506-2.275 3.061v0z" fill="#a437db" data-fill-palette-color="primary"></path><path d="M77.77 163.553c0.743 0.144 1.387 0.393 1.934 0.748 0.546 0.356 1.043 0.864 1.49 1.525v0l-1.394 1.231c-0.356-0.434-0.716-0.774-1.08-1.02-0.366-0.24-0.78-0.404-1.243-0.493v0c-1.961-0.379-3.31 1.338-4.047 5.149v0c-0.383 1.981-0.408 3.443-0.077 4.386 0.337 0.951 0.978 1.517 1.923 1.699v0c0.463 0.089 0.899 0.086 1.31-0.01 0.416-0.089 0.889-0.264 1.42-0.527v0l0.85 1.685c-1.315 0.861-2.651 1.161-4.006 0.899v0c-1.74-0.336-2.967-1.225-3.682-2.668-0.721-1.444-0.84-3.417-0.357-5.919v0c0.472-2.443 1.328-4.248 2.567-5.415 1.247-1.172 2.711-1.595 4.392-1.27z" fill="#a437db" data-fill-palette-color="primary"></path><path d="M94.441 177.399l0.982 1.536c-0.838 0.691-1.784 1.046-2.839 1.064v0c-1.108 0.019-1.976-0.295-2.605-0.941-0.622-0.653-0.942-1.534-0.961-2.641v0l-0.166-9.645-2.011 0.034-0.033-1.95 2.01-0.035-0.058-3.364 2.483-0.352 0.063 3.673 2.887-0.049-0.225 1.955-2.628 0.045 0.166 9.675c0.018 1.035 0.471 1.545 1.361 1.529v0c0.299-0.005 0.56-0.049 0.784-0.133 0.224-0.077 0.488-0.211 0.79-0.401z" fill="#a437db" data-fill-palette-color="primary"></path><path d="M112.819 173.362c0.112 0.512 0.271 0.878 0.475 1.098 0.197 0.215 0.476 0.361 0.84 0.438v0l-0.157 1.797c-0.705 0.039-1.29-0.06-1.757-0.297-0.465-0.231-0.85-0.653-1.153-1.266v0c-0.491 1.575-1.498 2.529-3.021 2.863v0c-1.199 0.263-2.24 0.073-3.121-0.57-0.889-0.648-1.479-1.636-1.771-2.965v0c-0.338-1.543-0.117-2.831 0.662-3.865 0.781-1.027 2.082-1.74 3.903-2.139v0l1.44-0.315-0.29-1.322c-0.21-0.959-0.555-1.618-1.034-1.975-0.473-0.358-1.104-0.451-1.895-0.278v0c-0.94 0.206-1.982 0.692-3.125 1.459v0l-0.978-1.58c1.35-0.968 2.677-1.595 3.981-1.88v0c1.491-0.327 2.69-0.171 3.597 0.465 0.902 0.645 1.512 1.693 1.83 3.146v0zM108.143 176.068c1.141-0.25 1.846-1.216 2.117-2.9v0l-0.744-3.393-1.166 0.255c-1.16 0.254-1.956 0.687-2.386 1.297-0.435 0.618-0.54 1.443-0.315 2.474v0c0.193 0.882 0.505 1.513 0.935 1.895 0.43 0.381 0.95 0.505 1.559 0.372z" fill="#a437db" data-fill-palette-color="primary"></path><path d="M128.474 148.006l2.107-1.147 6.586 18.596-2.955 1.608-10.199-13.115 5.452 15.7-2.903 1.58-12.025-15.635 2.186-1.19 10.297 14.002-5.698-16.506 2.483-1.351 10.769 13.745z" fill="#a437db" data-fill-palette-color="primary"></path><path d="M141.156 142.826c1.268-1.238 2.705-1.728 4.312-1.47 1.616 0.258 3.312 1.297 5.088 3.116v0c1.674 1.714 2.646 3.417 2.917 5.11 0.276 1.697-0.216 3.161-1.474 4.389v0c-1.253 1.224-2.709 1.686-4.367 1.384-1.667-0.301-3.349-1.321-5.046-3.058v0c-1.753-1.795-2.744-3.512-2.973-5.153-0.239-1.641 0.276-3.08 1.543-4.318zM142.561 144.264c-0.712 0.696-0.933 1.533-0.663 2.513 0.275 0.984 1.131 2.212 2.568 3.684v0c1.423 1.458 2.626 2.338 3.608 2.64 0.982 0.303 1.822 0.113 2.52-0.569v0c0.717-0.7 0.936-1.545 0.656-2.533-0.279-0.989-1.138-2.219-2.575-3.691v0c-1.423-1.458-2.624-2.335-3.601-2.633-0.973-0.293-1.81-0.097-2.513 0.589z" fill="#a437db" data-fill-palette-color="primary"></path><path d="M152.849 127.78c0.228-0.35 0.482-0.637 0.761-0.859v0l1.778 1.667c-0.284 0.266-0.508 0.525-0.671 0.776v0c-0.402 0.617-0.453 1.305-0.153 2.061 0.294 0.753 0.936 1.61 1.926 2.571v0l7.351 4.782-1.357 2.086-12.492-8.126 1.173-1.802 2.428 1.342c-1.339-1.702-1.587-3.202-0.744-4.498z" fill="#a437db" data-fill-palette-color="primary"></path><path d="M153.279 111.655l1.145-2.227 19.529 7.431-0.782 2.056-1.828-0.515c1.073 1.36 1.365 2.682 0.877 3.966v0c-0.55 1.445-1.61 2.309-3.18 2.592-1.568 0.277-3.478-0.013-5.73-0.87v0c-1.464-0.557-2.678-1.239-3.641-2.046-0.962-0.813-1.612-1.679-1.952-2.596-0.336-0.909-0.336-1.804-0.001-2.684v0c0.463-1.216 1.378-2.007 2.746-2.374v0zM170.538 121.215c0.382-1.005 0.053-2.128-0.987-3.368v0l-7.052-2.684c-1.471 0.264-2.388 0.874-2.751 1.829v0c-0.307 0.806-0.106 1.603 0.602 2.391 0.711 0.782 1.99 1.524 3.839 2.228v0c3.61 1.374 5.726 1.242 6.349-0.396z" fill="#a437db" data-fill-palette-color="primary"></path><path d="M1.379 91.227c0-4.11 3.332-7.442 7.442-7.442 4.11 0 7.442 3.332 7.442 7.442 0 4.11-3.332 7.442-7.442 7.442-4.11 0-7.442-3.332-7.442-7.442z" fill="#a437db" data-fill-palette-color="primary"></path><path d="M162.648 91.227c0-4.11 3.332-7.442 7.442-7.442 4.11 0 7.442 3.332 7.442 7.442 0 4.11-3.332 7.442-7.442 7.442-4.11 0-7.442-3.332-7.442-7.442z" fill="#a437db" data-fill-palette-color="primary"></path></g><g id="text-1"></g></svg></g></svg></g></svg></g></svg></g></svg></g></svg></g><defs></defs></svg><rect width="320" height="360" fill="none" stroke="none" visibility="hidden"></rect></g></svg></g></svg>