
        <svg xmlns="http://www.w3.org/2000/svg" xmlns:xlink="http://www.w3.org/1999/xlink" version="1.1" width="3250" height="1741.7885640829961" viewBox="0 -137.50000000000003 3250 1741.7885640829961">
			
			<g transform="scale(12.500000000000002) translate(10, 10)">
				<defs id="SvgjsDefs2121"/><g id="SvgjsG2122" featureKey="symbolFeature-0" transform="matrix(1.162790903985827,0,0,1.162790903985827,61.860459236403926,-52.86047254348978)" fill="#000"><g xmlns="http://www.w3.org/2000/svg" transform="translate(0,-952.36218)"><path style="color:;enable-background:accumulate;" d="m 7.000009,1016.3622 16,-1 c 0,-3.0491 2,-8 2,-8 0,0 2.5409,0 5,0 2,-4 5,-12.00002 7,-12.00002 0,0 1,-4 3,-4 2.6314,0 16.99998,9.00002 16.99998,9.00002 l -10.99998,16 c 0,0 5.41738,-2.8351 10.99998,-4 1.988,-0.4148 -0.2344,-4.7065 2,-5 1.929,-0.2534 4,-1 5,-1 1,0 2.0324,-13.24872 4,-11.00002 7,8.00002 21.4047,17.28082 25.000002,21.00002 l -12.000002,-17.00002 -3,4.00002 -9,-13.00002 -11,7 -10.99998,-8 -3,2 -5,-3 -4,6 -5,-2 -12,16.00002 -3.3749,-0.6251 -7.6251,8.6251" stroke="none" marker="none" visibility="visible" display="inline" overflow="visible"/></g></g><g id="SvgjsG2123" featureKey="nameFeature-0" transform="matrix(1.6872890237025067,0,0,1.6872890237025067,0,40.17660438533547)" fill="#000"><path d="M0 33.6 l3.92 0 c0.2 2.2 0.68 2.8 1.44 2.8 c1.6 0 1.6 -1.68 1.6 -13.24 l0 -11.96 l-3.04 0 l0 -3.2 l7.04 0 l0 15.16 c0 12.8 0 17.24 -5.6 17.24 c-3.52 0 -4.88 -1.92 -5.36 -6.8 z M17.060000000000002 23.16 c0 -11.16 0.24 -15.56 6.24 -15.56 s6.24 4.4 6.24 15.56 c0 12.8 -0.24 17.24 -6.24 17.24 s-6.24 -4.44 -6.24 -17.24 z M21.060000000000002 23.16 c0 11.56 0 13.24 2.24 13.24 s2.24 -1.68 2.24 -13.24 c0 -10.4 0 -12.36 -2.24 -12.36 s-2.24 1.96 -2.24 12.36 z M34.04 8 l4 0 l2.4 12.32 l0.4 0 l2.4 -12.32 l4 0 l-4.6 18.08 l0 13.92 l-4 0 l0 -13.92 z M63.44 40 l0 -32 l6 0 c6 0 6 4.4 6 15.16 c0 12.4 0 16.84 -6 16.84 l-6 0 z M67.44 36 l2 0 c2.24 0 2.24 -1.68 2.24 -12.84 c0 -10 0 -11.96 -2.24 -11.96 l-2 0 l0 24.8 z M81.33999999999999 23.16 l0 -15.16 l4 0 l0 15.16 c0 11.56 0 13.24 2 13.24 s2 -1.68 2 -13.24 l0 -15.16 l4 0 l0 15.16 c0 12.8 0 17.24 -6 17.24 s-6 -4.44 -6 -17.24 z M98.03999999999999 11.600000000000001 l0 -3.6 l12 0 l0 3.6 l-4 0 l0 28.4 l-4 0 l0 -28.4 l-4 0 z M113.33999999999999 11.600000000000001 l0 -3.6 l12 0 l0 3.6 l-4 0 l0 28.4 l-4 0 l0 -28.4 l-4 0 z M130.23999999999998 40 l0 -16.8 c0 -11.16 0 -15.56 6 -15.56 s6 4.4 6 15.56 l0 16.8 l-4 0 l0 -9.2 l-4 0 l0 9.2 l-4 0 z M134.23999999999998 27.6 l4 0 l0 -4.4 c0 -10.4 0 -12.36 -2 -12.36 s-2 1.96 -2 12.36 l0 4.4 z"/></g>
			</g>
		</svg>
	