<svg xmlns="http://www.w3.org/2000/svg" version="1.1" xmlns:xlink="http://www.w3.org/1999/xlink" xmlns:svgjs="http://svgjs.dev/svgjs" width="1500" height="871" viewBox="0 0 1500 871"><g transform="matrix(1,0,0,1,-0.3874489934705707,0.7226107351719975)"><svg viewBox="0 0 396 230" data-background-color="#ffffff" preserveAspectRatio="xMidYMid meet" height="871" width="1500" xmlns="http://www.w3.org/2000/svg" xmlns:xlink="http://www.w3.org/1999/xlink"><g id="tight-bounds" transform="matrix(1,0,0,1,0.42580263729064427,-0.19081569355861916)"><svg viewBox="0 0 395.52 230.38076174238233" height="230.38076174238233" width="395.52"><g><svg viewBox="0 0 395.52 230.38076174238233" height="230.38076174238233" width="395.52"><g transform="matrix(1,0,0,1,0,151.80037340711803)"><svg viewBox="0 0 395.52 78.58038833526429" height="78.58038833526429" width="395.52"><g id="textblocktransform"><svg viewBox="0 0 395.52 78.58038833526429" height="78.58038833526429" width="395.52" id="textblock"><g><svg viewBox="0 0 395.52 78.58038833526429" height="78.58038833526429" width="395.52"><g transform="matrix(1,0,0,1,0,0)"><svg width="395.52" viewBox="0.14578235237199277 -28.29649 222.64606251785463 44.275999999999996" height="78.58038833526429" data-palette-color="#471aa0"><path d="M9.081-5.024c0.549 2.888 1.229 4.89 2.038 6.005 0.803 1.116 1.856 1.551 3.159 1.303 1.303-0.248 3.088-0.91 5.354-1.985v0l2.588 6.653c-2.4 1.44-4.906 2.409-7.519 2.906v0c-3.91 0.744-7.002-0.012-9.277-2.266-2.268-2.256-3.891-5.954-4.869-11.096-0.978-5.141-0.796-9.251 0.546-12.329 1.335-3.077 4.108-5.016 8.32-5.817v0c2.482-0.472 4.949-0.398 7.401 0.221v0l0.116 7.836c-2.708-0.36-4.567-0.445-5.575-0.252v0c-1.434 0.273-2.311 1.088-2.63 2.444-0.318 1.363-0.202 3.489 0.348 6.377zM21.142-4.057c-0.65-4.318-0.294-7.571 1.069-9.758 1.369-2.188 3.818-3.548 7.345-4.079 3.534-0.532 6.248 0.034 8.143 1.697 1.895 1.663 3.171 4.67 3.825 9.021 0.655 4.351 0.343 7.631-0.935 9.838-1.279 2.208-3.708 3.582-7.288 4.121-3.58 0.539-6.339-0.054-8.277-1.777-1.938-1.724-3.232-4.745-3.882-9.063zM32.287-10.498c-0.317-0.626-0.9-0.876-1.751-0.748-0.857 0.129-1.351 0.541-1.483 1.234-0.125 0.693-0.029 2.091 0.288 4.194v0l0.177 1.177c0.351 2.334 0.691 3.826 1.018 4.479 0.335 0.657 0.921 0.923 1.758 0.797 0.837-0.126 1.319-0.553 1.446-1.28 0.128-0.72 0.03-2.148-0.291-4.284v0l-0.214-1.424c-0.322-2.136-0.637-3.518-0.948-4.145zM51.353 4.412v0c-3.93 0.426-6.132-1.541-6.605-5.903v0l-1.916-17.676 8.421-0.913 1.696 15.648c0.09 0.828 0.499 1.203 1.229 1.124v0c0.921-0.1 1.672-0.416 2.25-0.948v0l-1.755-16.195 8.321-0.902 2.561 23.622-7.874 0.853-0.187-1.73-0.199 0.022c-1.648 1.748-3.628 2.747-5.942 2.998zM74.704-20.388l0.19-0.012c1.721-1.676 3.675-2.586 5.864-2.73 2.189-0.143 3.755 0.262 4.699 1.216 0.944 0.954 1.483 2.442 1.616 4.463v0l1.202 18.341-8.452 0.554-1.016-15.507c-0.055-0.832-0.444-1.224-1.17-1.176v0c-0.931 0.061-1.698 0.345-2.299 0.853v0l1.053 16.055-8.353 0.548-1.56-23.809 7.613-0.499zM104.321-6.119l-0.057 6.634c-2.451 0.368-4.583 0.577-6.396 0.626-1.806 0.05-3.228-0.385-4.267-1.303-1.039-0.918-1.591-2.54-1.655-4.866v0l-0.318-11.555-2.39 0.065-0.17-6.167 2.789-0.077 0.324-4.601 7.517-0.207 0.126 4.588 4.429-0.122-0.18 6.177-4.129 0.114 0.274 9.916c0.019 0.693 0.362 1.03 1.028 1.012v0c0.067-0.002 1.092-0.08 3.075-0.234zM116.267-16.818v0c-0.867-0.005-1.435 0.282-1.706 0.86-0.263 0.585-0.399 1.474-0.405 2.667v0l4.33 0.026 0.007-1.2c0.009-1.56-0.733-2.344-2.226-2.353zM116.508-23.937v0c3.42 0.02 5.865 0.858 7.335 2.513 1.464 1.649 2.187 3.999 2.169 7.052v0c-0.002 0.4-0.129 2.193-0.381 5.378v0l-11.35-0.066c-0.015 2.493 1.122 3.747 3.408 3.76v0c1.1 0.006 3.245-0.361 6.437-1.102v0l0.664 6.174c-2.798 0.85-5.591 1.267-8.377 1.251v0c-3.42-0.02-6.037-1.155-7.851-3.406-1.814-2.257-2.709-5.313-2.686-9.166v0c0.048-8.3 3.592-12.429 10.632-12.388zM136.604-12.381v0l-0.543 13.389-8.263-0.336 0.968-23.84 7.274 0.295 0.441 1.459 0.2 0.008c0.794-0.828 1.586-1.353 2.376-1.575 0.789-0.215 2.063-0.287 3.821-0.215v0l-0.673 7.949-2.288-0.092c-1.292-0.052-2.153 0.113-2.582 0.495-0.436 0.383-0.679 1.203-0.731 2.463zM173.299-27.068l2.647 31.346-8.28-0.808-0.472-4.95-5.842-0.57-1.419 4.765-7.883-0.77 8.659-30.241zM163.003-7.746l3.822 0.373-0.667-11.178-0.338-0.033zM185.879 5.129l-0.198-0.028-1.026 7.309-8.289-1.164 4.268-30.392 6.813 0.957 0.288 1.545 0.247 0.034c1.107-1.218 3.01-1.637 5.711-1.258 2.694 0.378 4.46 1.582 5.299 3.612 0.839 2.03 0.959 5.18 0.359 9.452-0.601 4.278-1.632 7.378-3.093 9.3-1.462 1.929-3.755 2.674-6.877 2.236v0c-1.446-0.203-2.613-0.737-3.502-1.603zM190.133-1.292c0.193-0.559 0.345-1.116 0.457-1.672 0.111-0.55 0.276-1.607 0.496-3.172 0.22-1.565 0.273-2.782 0.16-3.654-0.113-0.871-0.523-1.356-1.23-1.455-0.706-0.099-1.434 0.001-2.183 0.3v0l-1.433 10.21c0.585 0.385 1.165 0.618 1.74 0.698 0.574 0.081 1.002 0.033 1.282-0.143 0.275-0.184 0.512-0.554 0.711-1.112zM208.314 8.758l-0.196-0.037-1.336 7.259-8.232-1.515 5.554-30.183 6.766 1.244 0.222 1.556 0.246 0.046c1.157-1.17 3.077-1.508 5.759-1.015 2.675 0.492 4.389 1.77 5.141 3.833 0.752 2.064 0.738 5.216-0.042 9.459-0.782 4.249-1.943 7.302-3.485 9.161-1.543 1.865-3.865 2.512-6.967 1.941v0c-1.436-0.264-2.579-0.847-3.43-1.749zM212.837 2.523c0.216-0.55 0.392-1.101 0.528-1.652 0.134-0.545 0.344-1.594 0.63-3.148 0.286-1.554 0.391-2.768 0.314-3.643-0.076-0.875-0.465-1.377-1.167-1.506-0.702-0.129-1.433-0.06-2.193 0.206v0l-1.866 10.14c0.569 0.41 1.138 0.667 1.709 0.772 0.57 0.105 1 0.075 1.287-0.088 0.282-0.172 0.535-0.532 0.758-1.081z" opacity="1" transform="matrix(1,0,0,1,0,0)" fill="#471aa0" class="wordmark-text-0" data-fill-palette-color="primary" id="text-0"></path></svg></g></svg></g></svg></g></svg></g><g transform="matrix(1,0,0,1,137.28009059850876,0)"><svg viewBox="0 0 120.95981880298247 127.14306832645761" height="127.14306832645761" width="120.95981880298247"><g><svg xmlns="http://www.w3.org/2000/svg" xmlns:xlink="http://www.w3.org/1999/xlink" xml:space="preserve" version="1.1" style="shape-rendering:geometricPrecision;text-rendering:geometricPrecision;image-rendering:optimizeQuality;" viewBox="10 2 313 329" x="0" y="0" fill-rule="evenodd" clip-rule="evenodd" height="127.14306832645761" width="120.95981880298247" class="icon-icon-0" data-fill-palette-color="accent" id="icon-0"><g fill="#471aa0" data-fill-palette-color="accent"><path class="" d="M10 175l114-114-81-21 65-38 27 48 32-32 31 32 27-48 65 38-80 21 113 114-156 156-157-156z m135-108l0 0c4-9 12-14 22-14 9 0 18 5 21 13l0 1 1 0c1 3 2 6 2 10 0 13-11 24-24 24-14 0-24-11-24-24 0-4 0-7 2-10l0 0z m-72 109l62 0-31 41-31-41z m125 0l63 0-32 41-31-41z m0 0l-63 0 32 41 31-41z m-31-119c6 0 10 5 10 11 0 6-4 11-10 11-6 0-11-5-11-11 0-6 5-11 11-11z m-149 118l297 0-148 148-149-148z" fill="#471aa0" data-fill-palette-color="accent"></path></g></svg></g></svg></g><g></g></svg></g><defs></defs></svg><rect width="395.52" height="230.38076174238233" fill="none" stroke="none" visibility="hidden"></rect></g></svg></g></svg>