<svg xmlns="http://www.w3.org/2000/svg" version="1.1" xmlns:xlink="http://www.w3.org/1999/xlink" xmlns:svgjs="http://svgjs.dev/svgjs" width="1500" height="1500" viewBox="0 0 1500 1500"><rect width="1500" height="1500" fill="#ffffff"></rect><g transform="matrix(0.6666666666666666,0,0,0.6666666666666666,250,250)"><svg viewBox="0 0 280 280" data-background-color="#ffffff" preserveAspectRatio="xMidYMid meet" height="1500" width="1500" xmlns="http://www.w3.org/2000/svg" xmlns:xlink="http://www.w3.org/1999/xlink"><g id="tight-bounds" transform="matrix(1,0,0,1,0,0)"><svg viewBox="0 0 280 280" height="280" width="280"><g><svg viewBox="0 0 280 280" height="280" width="280"><g><svg viewBox="0 0 280 280" height="280" width="280"><g id="textblocktransform"><svg viewBox="0 0 280 280" height="280" width="280" id="textblock"><g><svg viewBox="0 0 280 280" height="280" width="280"><g transform="matrix(1,0,0,1,74.00336708925556,74.00336708925556)"><svg viewBox="0 0 131.99326582148888 131.99326582148888" height="131.99326582148888" width="131.99326582148888"><g id="icon-0"><svg xmlns="http://www.w3.org/2000/svg" xmlns:xlink="http://www.w3.org/1999/xlink" version="1.1" x="0" y="0" viewBox="11.137999999999998 11.138 90 90" style="enable-background:new 0 0 112.276 112.276;" xml:space="preserve" height="131.99326582148888" width="131.99326582148888" class="icon-xg-0" data-fill-palette-color="accent" id="xg-0"><g fill="#ac5633" data-fill-palette-color="accent"><path d="M56.138 11.138c-24.813 0-45 20.189-45 45.001 0 24.811 20.187 44.999 45 44.999 24.814 0 45-20.188 45-44.999C101.138 31.326 80.951 11.138 56.138 11.138zM56.138 97.822c-22.984 0-41.684-18.7-41.684-41.684 0-22.985 18.7-41.685 41.684-41.685 22.985 0 41.684 18.7 41.684 41.685C97.822 79.122 79.123 97.822 56.138 97.822z" fill="#ac5633" data-fill-palette-color="accent"></path><path d="M85.926 74.552c-0.288 0-0.58-0.073-0.847-0.227l-6.726-3.883c-0.812-0.468-1.089-1.505-0.621-2.317s1.506-1.089 2.317-0.621l6.726 3.883c0.812 0.468 1.089 1.505 0.621 2.317C87.083 74.249 86.512 74.552 85.926 74.552z" fill="#ac5633" data-fill-palette-color="accent"></path><path d="M82.53 57.996c-0.936 0-1.696-0.759-1.696-1.696 0-0.936 0.759-1.696 1.696-1.696l7.835-0.001c0.936 0 1.696 0.759 1.696 1.696 0 0.936-0.759 1.696-1.696 1.696L82.53 57.996z" fill="#ac5633" data-fill-palette-color="accent"></path><path d="M79.341 45.24c-0.585 0-1.155-0.304-1.47-0.848-0.468-0.811-0.191-1.849 0.621-2.317l6.586-3.804c0.811-0.469 1.846-0.192 2.317 0.621 0.468 0.811 0.191 1.849-0.621 2.317l-6.586 3.804C79.921 45.167 79.63 45.24 79.341 45.24z" fill="#ac5633" data-fill-palette-color="accent"></path><path d="M70.224 35.516c-0.288 0-0.58-0.073-0.847-0.227-0.812-0.468-1.089-1.505-0.621-2.317l3.58-6.201c0.468-0.813 1.506-1.089 2.317-0.621 0.812 0.468 1.089 1.505 0.621 2.317l-3.58 6.201C71.381 35.213 70.81 35.516 70.224 35.516z" fill="#ac5633" data-fill-palette-color="accent"></path><path d="M57.248 31.467c-0.936 0-1.696-0.76-1.696-1.696v-6.588c0-0.936 0.76-1.696 1.696-1.696 0.936 0 1.696 0.76 1.696 1.696v6.588C58.944 30.707 58.184 31.467 57.248 31.467z" fill="#ac5633" data-fill-palette-color="accent"></path><path d="M43.711 34.546c-0.585 0-1.156-0.304-1.47-0.848l-3.02-5.23c-0.468-0.811-0.191-1.849 0.621-2.317 0.811-0.468 1.849-0.192 2.317 0.621l3.02 5.23c0.468 0.811 0.191 1.849-0.621 2.317C44.291 34.473 43.999 34.546 43.711 34.546z" fill="#ac5633" data-fill-palette-color="accent"></path><path d="M33.489 44.278c-0.288 0-0.58-0.073-0.847-0.227l-4.922-2.841c-0.812-0.468-1.089-1.505-0.621-2.317 0.468-0.813 1.506-1.089 2.317-0.621l4.922 2.841c0.812 0.468 1.089 1.505 0.621 2.317C34.645 43.974 34.074 44.278 33.489 44.278z" fill="#ac5633" data-fill-palette-color="accent"></path><path d="M29.747 57.996h-5.615c-0.936 0-1.696-0.76-1.696-1.696 0-0.936 0.76-1.696 1.696-1.696h5.615c0.936 0 1.696 0.76 1.696 1.696C31.443 57.236 30.684 57.996 29.747 57.996z" fill="#ac5633" data-fill-palette-color="accent"></path><path d="M28.569 74.553c-0.585 0-1.156-0.304-1.47-0.848-0.468-0.812-0.191-1.849 0.621-2.317l5.065-2.924c0.811-0.468 1.849-0.192 2.317 0.621 0.468 0.812 0.191 1.849-0.621 2.317l-5.065 2.924C29.149 74.481 28.857 74.553 28.569 74.553z" fill="#ac5633" data-fill-palette-color="accent"></path><path d="M56.444 51.05c-0.43-0.016-0.842 0.041-1.244 0.129L38.732 36.304l-0.161-0.146-4.276-1.768 1.951 3.82 0.258 0.29 14.879 16.763c-0.027 0.184-0.07 0.365-0.077 0.555-0.101 2.729 2.038 5.032 4.768 5.133 2.731 0.101 5.034-2.037 5.135-4.766C61.313 53.455 59.175 51.151 56.444 51.05z" fill="#ac5633" data-fill-palette-color="accent"></path><g fill="#ac5633" data-fill-palette-color="accent"><path d="M48.717 86.491H43.44c-0.416 0-0.754-0.338-0.754-0.754v-9.235c0-0.416 0.338-0.754 0.754-0.754h5.277c0.416 0 0.754 0.338 0.754 0.754v9.235C49.471 86.154 49.134 86.491 48.717 86.491z" fill="#ac5633" data-fill-palette-color="accent"></path><path d="M58.777 86.491H53.5c-0.416 0-0.754-0.338-0.754-0.754v-9.235c0-0.416 0.338-0.754 0.754-0.754h5.277c0.416 0 0.754 0.338 0.754 0.754v9.235C59.531 86.154 59.193 86.491 58.777 86.491z" fill="#ac5633" data-fill-palette-color="accent"></path><path d="M68.836 86.491h-5.277c-0.416 0-0.754-0.338-0.754-0.754v-9.235c0-0.416 0.338-0.754 0.754-0.754h5.277c0.416 0 0.754 0.338 0.754 0.754v9.235C69.59 86.154 69.253 86.491 68.836 86.491z" fill="#ac5633" data-fill-palette-color="accent"></path></g></g></svg></g></svg></g><g id="text-0"><path d="M31.263 99.119c-0.794 2.241-2.036 3.98-3.725 5.217-1.681 1.234-3.714 1.92-6.1 2.061-2.378 0.136-5.014-0.309-7.908-1.335v0c-2.92-1.035-5.278-2.346-7.074-3.933-1.8-1.595-2.973-3.376-3.519-5.342-0.553-1.968-0.446-4.034 0.322-6.199v0c0.785-2.215 1.947-3.94 3.485-5.174 1.536-1.228 3.35-1.971 5.442-2.23v0l0.528 2.835c-1.831 0.287-3.279 0.874-4.344 1.761-1.056 0.883-1.871 2.134-2.445 3.753v0c-0.821 2.317-0.469 4.489 1.056 6.516 1.527 2.021 4.062 3.659 7.604 4.914v0c2.323 0.824 4.436 1.233 6.338 1.229 1.906 0.004 3.509-0.396 4.809-1.2 1.297-0.798 2.209-1.939 2.736-3.425v0c0.657-1.854 0.755-3.441 0.295-4.761-0.454-1.319-1.397-2.732-2.827-4.239v0l2.356-1.93c1.698 1.66 2.806 3.453 3.323 5.379 0.524 1.929 0.406 3.963-0.352 6.103z" fill="#cb8c2f" data-fill-palette-color="primary"></path><path d="M45.997 72.052c-1.076 1.507-2.401 2.597-3.974 3.27-1.571 0.682-3.244 0.898-5.019 0.649-1.775-0.249-3.474-0.953-5.096-2.112v0c-1.617-1.155-2.824-2.517-3.622-4.088-0.798-1.571-1.138-3.204-1.02-4.899 0.127-1.697 0.729-3.299 1.805-4.806v0c1.076-1.507 2.4-2.602 3.971-3.284 1.573-0.673 3.241-0.888 5.005-0.647 1.768 0.236 3.46 0.932 5.077 2.086v0c1.622 1.158 2.836 2.53 3.642 4.114 0.809 1.579 1.152 3.214 1.028 4.906-0.122 1.7-0.721 3.304-1.797 4.811zM43.853 70.621c0.771-1.08 1.189-2.233 1.255-3.461 0.06-1.232-0.224-2.427-0.852-3.588-0.634-1.164-1.559-2.181-2.775-3.049v0c-1.211-0.865-2.47-1.408-3.777-1.629-1.301-0.217-2.525-0.098-3.67 0.358-1.145 0.457-2.103 1.225-2.875 2.305v0c-0.755 1.058-1.159 2.197-1.211 3.417-0.052 1.221 0.23 2.407 0.847 3.56 0.617 1.152 1.534 2.163 2.751 3.032v0c1.239 0.884 2.511 1.437 3.818 1.658 1.301 0.217 2.521 0.103 3.658-0.342 1.132-0.45 2.076-1.203 2.831-2.261z" fill="#cb8c2f" data-fill-palette-color="primary"></path><path d="M58.781 30.677l2.162-1.808 12.449 14.887-2.162 1.808-2.074-2.48c0.288 1.384 0.229 2.684-0.176 3.9-0.401 1.222-1.154 2.295-2.259 3.22v0c-1.038 0.868-2.174 1.458-3.407 1.769-1.237 0.306-2.462 0.263-3.674-0.127-1.213-0.39-2.288-1.146-3.226-2.268v0l-8.328-9.958 2.17-1.815 7.524 8.998c2.467 2.95 5.015 3.326 7.645 1.126v0c1.524-1.274 2.217-2.771 2.079-4.49-0.143-1.724-0.976-3.498-2.502-5.322v0z" fill="#cb8c2f" data-fill-palette-color="primary"></path><path d="M85.801 14.691c1.23-0.565 2.483-0.838 3.76-0.818 1.271 0.024 2.44 0.383 3.509 1.078 1.062 0.698 1.9 1.714 2.513 3.048v0l5.422 11.794-2.561 1.178-4.903-10.666c-1.606-3.494-3.967-4.525-7.082-3.093v0c-1.811 0.833-2.871 2.098-3.18 3.797-0.318 1.695 0.02 3.623 1.014 5.783v0l4.055 8.82-2.561 1.178-8.106-17.632 2.56-1.178 1.351 2.937c0.079-1.408 0.475-2.65 1.189-3.726 0.71-1.068 1.717-1.901 3.02-2.5z" fill="#cb8c2f" data-fill-palette-color="primary"></path><path d="M119.056 25.382l-2.769 0.529-3.163-16.541-3.254 0.623-0.482-2.521 3.254-0.622-1.208-6.321 2.768-0.529 1.209 6.321 4.405-0.843 0.482 2.52-4.405 0.843z" fill="#cb8c2f" data-fill-palette-color="primary"></path><path d="M144.825 3.747c1.744 0.041 3.309 0.506 4.696 1.394 1.387 0.888 2.464 2.083 3.23 3.583 0.773 1.5 1.138 3.163 1.095 4.987v0c-0.012 0.525-0.039 0.925-0.079 1.201v0l-15.957-0.377c0.061 1.989 0.67 3.704 1.829 5.147 1.152 1.435 2.751 2.177 4.798 2.225v0c1.656 0.039 3.041-0.238 4.153-0.832 1.106-0.6 2.001-1.445 2.687-2.533v0l2.206 1.547c-0.943 1.413-2.171 2.512-3.685 3.298-1.514 0.779-3.294 1.145-5.341 1.097v0c-1.878-0.044-3.538-0.528-4.978-1.451-1.447-0.917-2.566-2.173-3.357-3.768-0.791-1.595-1.163-3.389-1.116-5.382v0c0.047-1.986 0.496-3.757 1.348-5.314 0.852-1.556 2.012-2.762 3.481-3.616 1.475-0.848 3.138-1.25 4.99-1.206zM138.027 12.216l13.018 0.308c-0.228-2.026-0.869-3.557-1.923-4.593-1.053-1.035-2.506-1.575-4.357-1.619v0c-1.798-0.042-3.282 0.499-4.455 1.623-1.178 1.117-1.94 2.544-2.283 4.281z" fill="#cb8c2f" data-fill-palette-color="primary"></path><path d="M181.111 9.581c0.638 0.167 1.229 0.423 1.772 0.767v0l-0.651 2.482c-0.49-0.414-1.071-0.709-1.742-0.885v0c-1.153-0.302-2.309-0.261-3.468 0.125-1.151 0.38-2.189 1.1-3.115 2.16-0.919 1.061-1.595 2.419-2.029 4.073v0l-2.357 8.99-2.726-0.715 4.922-18.771 2.726 0.715-0.989 3.771c1.089-1.205 2.288-2.049 3.599-2.534 1.311-0.485 2.663-0.544 4.058-0.178z" fill="#cb8c2f" data-fill-palette-color="primary"></path><path d="M222.014 56.582l-2.277-1.795 2.626-8.014-9.219-7.268-6.958 4.601-2.443-1.927 25.397-15.997 2.277 1.795zM227.729 30.24l-12.244 7.83 7.719 6.085z" fill="#cb8c2f" data-fill-palette-color="primary"></path><path d="M251.89 61.376c1.102 1.488 1.735 3.085 1.9 4.79 0.155 1.704-0.152 3.36-0.922 4.969-0.774 1.604-1.97 3.004-3.588 4.203v0c-1.602 1.186-3.274 1.917-5.014 2.191-1.741 0.275-3.398 0.09-4.973-0.553-1.58-0.64-2.921-1.704-4.023-3.193v0c-0.838-1.131-1.355-2.357-1.554-3.677-0.199-1.31-0.083-2.624 0.35-3.942v0l-8.996 6.661-1.677-2.265 22.262-16.484 1.677 2.265-2.297 1.702c1.365-0.013 2.643 0.259 3.835 0.817 1.191 0.568 2.198 1.406 3.02 2.516zM237.34 72.25c0.773 1.045 1.73 1.782 2.87 2.212 1.145 0.426 2.361 0.523 3.647 0.291 1.296-0.23 2.545-0.791 3.746-1.68v0c1.218-0.902 2.131-1.943 2.741-3.123 0.608-1.171 0.875-2.366 0.802-3.586-0.073-1.219-0.497-2.352-1.27-3.396v0c-0.79-1.066-1.761-1.818-2.914-2.255-1.153-0.437-2.378-0.535-3.676-0.295-1.303 0.244-2.552 0.809-3.748 1.694v0c-1.202 0.89-2.109 1.922-2.722 3.097-0.608 1.171-0.871 2.371-0.79 3.602 0.087 1.226 0.525 2.373 1.314 3.439z" fill="#cb8c2f" data-fill-palette-color="primary"></path><path d="M269.239 94.57c0.659 1.731 0.838 3.439 0.536 5.125-0.31 1.682-1.053 3.194-2.229 4.535-1.178 1.335-2.708 2.361-4.589 3.078v0c-1.863 0.71-3.669 0.962-5.42 0.757-1.75-0.205-3.297-0.831-4.639-1.876-1.349-1.043-2.353-2.43-3.012-4.161v0c-0.501-1.315-0.669-2.635-0.503-3.959 0.162-1.316 0.629-2.549 1.401-3.701v0l-10.46 3.984-1.004-2.633 25.886-9.862 1.004 2.634-2.672 1.018c1.317 0.356 2.475 0.963 3.473 1.823 0.994 0.868 1.736 1.947 2.228 3.238zM252.293 101.111c0.463 1.215 1.185 2.183 2.166 2.905 0.988 0.719 2.132 1.141 3.433 1.265 1.31 0.128 2.664-0.074 4.061-0.607v0c1.416-0.539 2.577-1.295 3.482-2.267 0.901-0.963 1.482-2.042 1.741-3.235 0.259-1.194 0.157-2.398-0.307-3.613v0c-0.472-1.24-1.205-2.226-2.197-2.958-0.992-0.732-2.145-1.157-3.459-1.277-1.32-0.117-2.676 0.09-4.066 0.62v0c-1.397 0.532-2.55 1.281-3.458 2.247-0.901 0.963-1.479 2.048-1.733 3.254-0.248 1.204-0.135 2.426 0.337 3.666z" fill="#cb8c2f" data-fill-palette-color="primary"></path><path d="M11.632 191.719c-0.814-2.284-0.954-4.461-0.42-6.532 0.543-2.067 1.711-3.924 3.504-5.572 1.802-1.644 4.181-2.992 7.138-4.046v0c2.981-1.063 5.695-1.545 8.14-1.444 2.454 0.105 4.535 0.757 6.243 1.956 1.704 1.209 2.95 2.92 3.74 5.134v0c0.805 2.258 0.997 4.371 0.575 6.337-0.428 1.969-1.384 3.729-2.868 5.281v0l-2.254-1.899c1.27-1.411 2.04-2.812 2.309-4.202 0.272-1.384 0.113-2.901-0.474-4.55v0c-0.846-2.373-2.527-3.868-5.043-4.487-2.516-0.619-5.585-0.282-9.207 1.01v0c-2.373 0.846-4.312 1.884-5.818 3.115-1.515 1.227-2.527 2.578-3.038 4.054-0.513 1.47-0.499 2.963 0.042 4.479v0c0.674 1.89 1.618 3.213 2.831 3.967 1.219 0.752 2.882 1.264 4.988 1.535v0l-0.627 3.055c-2.416-0.218-4.452-0.926-6.109-2.122-1.654-1.19-2.872-2.88-3.652-5.069z" fill="#cb8c2f" data-fill-palette-color="primary"></path><path d="M29.143 223.932c-1.103-1.538-1.724-3.177-1.862-4.918-0.142-1.746 0.203-3.437 1.037-5.071 0.824-1.636 2.063-3.046 3.715-4.231v0c1.653-1.186 3.369-1.907 5.149-2.165 1.789-0.256 3.484-0.042 5.085 0.641 1.597 0.678 2.947 1.786 4.05 3.324v0c1.103 1.538 1.726 3.18 1.869 4.926 0.138 1.741-0.202 3.427-1.021 5.059-0.813 1.628-2.046 3.034-3.699 4.22v0c-1.653 1.186-3.376 1.908-5.171 2.168-1.8 0.264-3.499 0.057-5.096-0.621-1.597-0.678-2.949-1.788-4.056-3.332zM31.23 222.335c0.789 1.1 1.77 1.884 2.944 2.352 1.164 0.467 2.413 0.585 3.749 0.357 1.33-0.225 2.617-0.783 3.859-1.675v0c1.242-0.891 2.183-1.931 2.823-3.119 0.64-1.188 0.927-2.41 0.863-3.666-0.068-1.261-0.496-2.442-1.285-3.541v0c-0.773-1.078-1.741-1.843-2.902-2.295-1.165-0.457-2.407-0.577-3.727-0.36-1.32 0.217-2.6 0.771-3.842 1.663v0c-1.264 0.907-2.216 1.954-2.856 3.143-0.645 1.192-0.935 2.411-0.869 3.657 0.056 1.245 0.47 2.406 1.243 3.484z" fill="#cb8c2f" data-fill-palette-color="primary"></path><path d="M71.715 238.058l2.212 1.843-12.697 15.246-2.212-1.843 2.114-2.538c-1.337 0.543-2.655 0.72-3.954 0.533-1.298-0.178-2.513-0.739-3.647-1.683v0c-1.061-0.884-1.861-1.918-2.399-3.102-0.544-1.189-0.728-2.425-0.553-3.709 0.174-1.293 0.739-2.513 1.696-3.662v0l8.494-10.2 2.213 1.842-7.68 9.223c-2.513 3.017-2.423 5.646 0.267 7.887v0c1.568 1.306 3.204 1.731 4.908 1.274 1.704-0.457 3.334-1.619 4.889-3.488v0z" fill="#cb8c2f" data-fill-palette-color="primary"></path><path d="M94.859 249.913c1.262 0.577 2.308 1.366 3.139 2.368 0.831 1.002 1.333 2.146 1.507 3.432 0.172 1.293-0.055 2.622-0.679 3.989v0l-5.515 12.063-2.627-1.201 4.989-10.915c1.632-3.571 0.856-6.084-2.329-7.541v0c-1.85-0.846-3.537-0.824-5.06 0.064-1.524 0.888-2.792 2.438-3.803 4.649v0l-4.124 9.022-2.628-1.201 8.249-18.045 2.628 1.201-1.374 3.005c1.139-0.872 2.361-1.39 3.666-1.557 1.305-0.166 2.625 0.056 3.961 0.667z" fill="#cb8c2f" data-fill-palette-color="primary"></path><path d="M115.624 277.473l-2.838-0.539 3.205-16.913-3.325-0.63 0.489-2.581 3.325 0.631 1.223-6.452 2.839 0.538-1.223 6.452 4.496 0.852-0.489 2.581-4.496-0.853z" fill="#cb8c2f" data-fill-palette-color="primary"></path><path d="M144.426 258.811c1.777-0.043 3.397 0.356 4.859 1.197 1.462 0.841 2.622 2.008 3.48 3.503 0.858 1.488 1.309 3.165 1.354 5.03v0c0.013 0.539 0.009 0.95-0.011 1.233v0l-16.321 0.394c0.163 2.031 0.869 3.752 2.116 5.163 1.253 1.411 2.924 2.092 5.011 2.042v0c1.697-0.041 3.096-0.391 4.198-1.051 1.102-0.667 1.976-1.574 2.623-2.721v0l2.329 1.47c-0.9 1.497-2.101 2.678-3.603 3.542-1.508 0.872-3.306 1.333-5.393 1.383v0c-1.926 0.046-3.647-0.363-5.163-1.229-1.523-0.866-2.725-2.097-3.606-3.693-0.887-1.589-1.355-3.4-1.404-5.433v0c-0.049-2.033 0.321-3.865 1.11-5.493 0.796-1.636 1.927-2.923 3.393-3.861 1.459-0.938 3.135-1.43 5.028-1.476zM137.902 267.79l13.311-0.321c-0.333-2.06-1.063-3.592-2.193-4.595-1.129-1.004-2.64-1.482-4.531-1.437v0c-1.838 0.044-3.329 0.666-4.472 1.866-1.143 1.2-1.848 2.695-2.115 4.487z" fill="#cb8c2f" data-fill-palette-color="primary"></path><path d="M175.917 253.638c0.651-0.171 1.305-0.241 1.96-0.211v0l0.666 2.541c-0.652-0.122-1.316-0.094-1.994 0.084v0c-1.179 0.309-2.187 0.925-3.024 1.848-0.837 0.923-1.402 2.087-1.695 3.493-0.286 1.405-0.207 2.954 0.236 4.648v0l2.408 9.186-2.795 0.733-5.03-19.193 2.794-0.732 1.012 3.86c0.362-1.62 1.007-2.972 1.934-4.058 0.925-1.092 2.101-1.825 3.528-2.199z" fill="#cb8c2f" data-fill-palette-color="primary"></path><path d="M234.101 242.426l-2.337 1.833-7.337-4.544-9.444 7.405 2.9 8.022-2.505 1.963-9.761-29.086 2.337-1.832zM209.315 230.395l4.818 14.054 7.911-6.202z" fill="#cb8c2f" data-fill-palette-color="primary"></path><path d="M234.888 209.875c1.13-1.518 2.506-2.61 4.126-3.276 1.617-0.66 3.327-0.848 5.13-0.564 1.798 0.281 3.523 1.036 5.176 2.267v0c1.631 1.215 2.838 2.633 3.62 4.257 0.787 1.627 1.1 3.304 0.939 5.031-0.161 1.727-0.808 3.353-1.943 4.876v0c-0.861 1.156-1.903 2.026-3.126 2.61-1.229 0.58-2.554 0.853-3.973 0.82v0l9.18 6.835-1.719 2.31-22.713-16.91 1.719-2.31 2.35 1.75c-0.417-1.335-0.528-2.669-0.333-4.002 0.2-1.329 0.722-2.56 1.567-3.694zM249.83 220.898c0.796-1.07 1.233-2.226 1.311-3.47 0.083-1.24-0.182-2.457-0.795-3.652-0.608-1.191-1.525-2.243-2.751-3.156v0c-1.248-0.929-2.535-1.518-3.861-1.767-1.326-0.249-2.574-0.157-3.743 0.274-1.169 0.431-2.152 1.181-2.948 2.251v0c-0.808 1.086-1.256 2.256-1.341 3.51-0.09 1.26 0.174 2.489 0.792 3.689 0.618 1.199 1.541 2.255 2.768 3.168v0c1.226 0.913 2.503 1.494 3.828 1.743 1.332 0.253 2.585 0.153 3.761-0.298 1.177-0.442 2.17-1.206 2.979-2.292z" fill="#cb8c2f" data-fill-palette-color="primary"></path><path d="M249.56 181.701c0.678-1.767 1.707-3.19 3.088-4.268 1.378-1.073 2.974-1.716 4.787-1.929 1.807-0.216 3.672 0.046 5.596 0.784v0c1.899 0.729 3.444 1.769 4.635 3.12 1.197 1.354 1.952 2.884 2.264 4.59 0.312 1.707 0.128 3.447-0.553 5.22v0c-0.516 1.346-1.285 2.465-2.305 3.357-1.027 0.89-2.228 1.511-3.604 1.864v0l10.686 4.1-1.031 2.688-26.437-10.144 1.031-2.688 2.735 1.05c-0.762-1.172-1.229-2.427-1.402-3.763-0.166-1.333 0.004-2.66 0.51-3.981zM266.925 188.277c0.478-1.245 0.586-2.477 0.325-3.695-0.255-1.216-0.839-2.316-1.752-3.301-0.907-0.983-2.074-1.748-3.502-2.296v0c-1.452-0.557-2.851-0.776-4.195-0.657-1.344 0.119-2.521 0.544-3.529 1.275-1.009 0.731-1.752 1.719-2.23 2.964v0c-0.485 1.264-0.599 2.511-0.343 3.742 0.254 1.237 0.841 2.35 1.76 3.337 0.92 0.988 2.093 1.755 3.52 2.303v0c1.427 0.548 2.813 0.762 4.157 0.643 1.35-0.117 2.531-0.551 3.541-1.304 1.014-0.744 1.763-1.747 2.248-3.011z" fill="#cb8c2f" data-fill-palette-color="primary"></path><path d="M1.665 141.768c0-6.1 4.945-11.045 11.044-11.044 6.1 0 11.045 4.945 11.045 11.044 0 6.1-4.945 11.045-11.045 11.045-6.1 0-11.045-4.945-11.044-11.045z" fill="#cb8c2f" data-fill-palette-color="primary"></path><path d="M256.246 141.768c0-6.1 4.945-11.045 11.045-11.044 6.1 0 11.045 4.945 11.044 11.044 0 6.1-4.945 11.045-11.044 11.045-6.1 0-11.045-4.945-11.045-11.045z" fill="#cb8c2f" data-fill-palette-color="primary"></path></g><g id="text-1"></g></svg></g></svg></g></svg></g><g></g></svg></g><defs></defs></svg><rect width="280" height="280" fill="none" stroke="none" visibility="hidden"></rect></g></svg></g></svg>